#!OML:ASF I:\Actors\actors\Patient Classification 2\Patient 1\Session 1\actor1.ASF
:FULLY-SPECIFIED
:DEGREES
236
root -0.920863 18.6655 6.18539 1.10995 -4.19355 -4.20081
lowerback 4.29209 1.34817 1.90659
upperback -3.32005 1.99423 1.09536
thorax -5.82942 0.932527 -0.115068
lowerneck -8.90305 -0.898847 1.15759
upperneck 24.5031 -1.75124 1.05204
head 9.14164 -0.60708 -0.0199932
rclavicle -9.56651e-015 -1.5704e-014
rhumerus -52.1091 -6.32296 -84.9071
rradius 42.0742
rwrist 17.7152
rhand -8.13232 -29.622
rfingers 7.12502
rthumb 17.7815 -58.829
lclavicle -9.56651e-015 -1.5704e-014
lhumerus -46.0434 5.99489 87.3697
lradius 36.9893
lwrist -14.2441
lhand -4.12401 -24.8007
lfingers 7.12502
lthumb 21.6349 4.01057
rfemur 0 0 0
rtibia 0
rfoot 0 0
rtoes 0
lfemur -3.60638 -6.05363 -11.0252
ltibia 23.0798
lfoot -25.6513 15.5807
ltoes -53.9354
237
root -0.920965 18.6657 6.18607 1.1293 -4.20026 -4.20902
lowerback 4.26301 1.34573 1.89039
upperback -3.33368 1.99033 1.11402
thorax -5.82837 0.931658 -0.0856905
lowerneck -8.8403 -0.898135 1.13288
upperneck 24.4048 -1.74507 1.06257
head 9.0958 -0.606728 -0.0109895
rclavicle 1.87603e-014 -1.25234e-014
rhumerus -52.1316 -6.32989 -84.8486
rradius 42.0657
rwrist 17.7828
rhand -8.09878 -29.6294
rfingers 7.12502
rthumb 17.8138 -58.8335
lclavicle 1.87603e-014 -1.25234e-014
lhumerus -46.0409 6.06029 87.3626
lradius 36.945
lwrist -14.2536
lhand -4.16531 -24.8313
lfingers 7.12502
lthumb 21.5952 3.9846
rfemur 0 0 0
rtibia 0
rfoot 0 0
rtoes 0
lfemur -3.62293 -5.97345 -11.0043
ltibia 23.0777
lfoot -25.5582 15.5282
ltoes -53.9379
238
root -0.921065 18.6665 6.18745 1.15458 -4.21806 -4.23424
lowerback 4.22035 1.34721 1.90594
upperback -3.35646 1.99311 1.12285
thorax -5.8277 0.932537 -0.0846356
lowerneck -8.75087 -0.885974 1.11903
upperneck 24.3027 -1.72431 1.07369
head 9.0436 -0.598648 -0.00198072
rclavicle -1.36789e-014 3.97569e-015
rhumerus -52.1732 -6.37954 -84.7902
rradius 42.064
rwrist 17.8503
rhand -8.69789 -29.6029
rfingers 7.12502
rthumb 17.2372 -58.8584
lclavicle -1.36789e-014 3.97569e-015
lhumerus -46.0641 6.09251 87.3455
lradius 36.9308
lwrist -14.2489
lhand -4.17202 -24.8809
lfingers 7.12502
lthumb 21.5888 3.93568
rfemur 0 0 0
rtibia 0
rfoot 0 0
rtoes 0
lfemur -3.64088 -5.92678 -10.9726
ltibia 23.0813
lfoot -25.5343 15.5045
ltoes -53.9092
239
root -0.921663 18.6667 6.18886 1.18181 -4.22512 -4.26588
lowerback 4.18824 1.3498 1.92513
upperback -3.38638 1.99804 1.1304
thorax -5.84041 0.934135 -0.0875074
lowerneck -8.7159 -0.865609 1.1118
upperneck 24.2495 -1.69702 1.09234
head 9.01877 -0.585255 0.00870241
rclavicle -1.83503e-014 -9.54166e-015
rhumerus -52.2123 -6.40724 -84.7486
rradius 42.068
rwrist 17.8621
rhand -9.91796 -29.6613
rfingers 7.12502
rthumb 16.0627 -59.0155
lclavicle -1.83503e-014 -9.54166e-015
lhumerus -46.1027 6.0357 87.3721
lradius 36.9796
lwrist -14.2152
lhand -4.12728 -24.7964
lfingers 7.12502
lthumb 21.6317 4.01527
rfemur 0 0 0
rtibia 0
rfoot 0 0
rtoes 0
lfemur -3.66757 -5.89451 -10.9283
ltibia 23.0878
lfoot -25.5304 15.491
ltoes -53.9159
240
root -0.922553 18.666 6.19096 1.20343 -4.23158 -4.27215
lowerback 4.15341 1.34962 1.90204
upperback -3.41092 1.99621 1.13842
thorax -5.84735 0.93423 -0.0655044
lowerneck -8.78327 -0.855516 1.09503
upperneck 24.2812 -1.69106 1.13089
head 9.04304 -0.579261 0.024864
rclavicle 3.47873e-015 2.00773e-014
rhumerus -52.2239 -6.36182 -84.737
rradius 42.0387
rwrist 17.8472
rhand -9.91491 -29.6811
rfingers 7.12502
rthumb 16.0656 -59.0351
lclavicle 3.47873e-015 2.00773e-014
lhumerus -46.1202 5.98552 87.4058
lradius 36.9999
lwrist -14.1607
lhand -4.13161 -24.7692
lfingers 7.12502
lthumb 21.6276 4.04294
rfemur 0 0 0
rtibia 0
rfoot 0 0
rtoes 0
lfemur -3.68025 -5.95754 -10.9223
ltibia 23.0891
lfoot -25.5789 15.4891
ltoes -53.8034
241
root -0.922775 18.6662 6.19377 1.22586 -4.23909 -4.25162
lowerback 4.10605 1.35404 1.86027
upperback -3.43655 1.99845 1.13749
thorax -5.84845 0.936978 -0.0423991
lowerneck -8.87684 -0.873962 1.08034
upperneck 24.3539 -1.72085 1.14392
head 9.08623 -0.591972 0.0280821
rclavicle -2.18042e-014 1.15295e-014
rhumerus -52.2472 -6.36848 -84.7017
rradius 42.0143
rwrist 17.8976
rhand -8.76187 -29.604
rfingers 7.12502
rthumb 17.1757 -58.8649
lclavicle -2.18042e-014 1.15295e-014
lhumerus -46.1365 5.9436 87.4359
lradius 37.0151
lwrist -14.0443
lhand -4.14398 -24.7994
lfingers 7.12502
lthumb 21.6157 4.01407
rfemur 0 0 0
rtibia 0
rfoot 0 0
rtoes 0
lfemur -3.68385 -6.03814 -10.9536
ltibia 23.0753
lfoot -25.6501 15.521
ltoes -53.7283
242
root -0.922059 18.6667 6.19563 1.25284 -4.22596 -4.23205
lowerback 4.0636 1.34727 1.84843
upperback -3.46558 1.98729 1.12337
thorax -5.85467 0.931489 -0.0486879
lowerneck -8.91559 -0.897877 1.08129
upperneck 24.3841 -1.75392 1.13432
head 9.10398 -0.607953 0.0209305
rclavicle 2.53202e-014 2.32578e-014
rhumerus -52.2676 -6.42371 -84.6641
rradius 42.0004
rwrist 17.9818
rhand -8.85955 -29.6509
rfingers 7.12502
rthumb 17.0816 -58.9199
lclavicle 2.53202e-014 2.32578e-014
lhumerus -46.1543 5.89779 87.4467
lradius 37.0644
lwrist -13.9405
lhand -4.13992 -24.7389
lfingers 7.12502
lthumb 21.6196 4.07421
rfemur 0 0 0
rtibia 0
rfoot 0 0
rtoes 0
lfemur -3.70155 -6.05218 -10.9755
ltibia 23.0466
lfoot -25.6344 15.5678
ltoes -53.7894
243
root -0.921088 18.6663 6.19847 1.26985 -4.20384 -4.18468
lowerback 4.0105 1.32138 1.80718
upperback -3.49447 1.94754 1.09603
thorax -5.8554 0.912846 -0.0494425
lowerneck -8.89838 -0.899289 1.11042
upperneck 24.3833 -1.76857 1.16325
head 9.10065 -0.609406 0.0244137
rclavicle -3.18055e-014 -8.15017e-015
rhumerus -52.3016 -6.42828 -84.6745
rradius 41.9954
rwrist 18.0189
rhand -9.52934 -29.6659
rfingers 7.12502
rthumb 16.4368 -58.9895
lclavicle -3.18055e-014 -8.15017e-015
lhumerus -46.1856 5.89398 87.4075
lradius 37.1101
lwrist -13.8958
lhand -4.18362 -24.7397
lfingers 7.12502
lthumb 21.5776 4.07816
rfemur 0 0 0
rtibia 0
rfoot 0 0
rtoes 0
lfemur -3.6995 -6.11605 -11.041
ltibia 23.0129
lfoot -25.6565 15.6254
ltoes -53.7607
244
root -0.920286 18.665 6.20336 1.27788 -4.19249 -4.12329
lowerback 3.93032 1.30142 1.7309
upperback -3.5133 1.91293 1.07701
thorax -5.83127 0.898679 -0.0216794
lowerneck -8.89965 -0.910966 1.10912
upperneck 24.3983 -1.80575 1.24526
head 9.10721 -0.618326 0.0487217
rclavicle -7.3923e-015 1.61016e-014
rhumerus -52.3308 -6.39819 -84.6893
rradius 42.0097
rwrist 18.0262
rhand -8.90767 -29.4725
rfingers 7.12502
rthumb 17.0353 -58.7456
lclavicle -7.3923e-015 1.61016e-014
lhumerus -46.2039 5.94711 87.3567
lradius 37.1261
lwrist -13.9248
lhand -4.22292 -24.8126
lfingers 7.12502
lthumb 21.5399 4.0096
rfemur 0 0 0
rtibia 0
rfoot 0 0
rtoes 0
lfemur -3.67299 -6.17186 -11.1244
ltibia 22.9797
lfoot -25.7258 15.6381
ltoes -53.7126
245
root -0.920025 18.6648 6.20738 1.29327 -4.19982 -4.07956
lowerback 3.83593 1.30281 1.66219
upperback -3.51601 1.90741 1.06968
thorax -5.78187 0.899122 0.0119451
lowerneck -8.96333 -0.937952 1.09371
upperneck 24.4262 -1.85444 1.29185
head 9.12975 -0.637042 0.0617595
rclavicle 2.63265e-014 1.43125e-014
rhumerus -52.3093 -6.40756 -84.6727
rradius 42.0331
rwrist 18.1296
rhand -8.16107 -29.4516
rfingers 7.12502
rthumb 17.7538 -58.6612
lclavicle 2.63265e-014 1.43125e-014
lhumerus -46.1817 5.99046 87.3442
lradius 37.1375
lwrist -13.9606
lhand -4.21887 -24.7858
lfingers 7.12502
lthumb 21.5438 4.03595
rfemur 0 0 0
rtibia 0
rfoot 0 0
rtoes 0
lfemur -3.66535 -6.16107 -11.1732
ltibia 22.956
lfoot -25.7578 15.6458
ltoes -53.7312
246
root -0.921046 18.6653 6.21001 1.3102 -4.23135 -4.06617
lowerback 3.74991 1.32243 1.61836
upperback -3.5146 1.9284 1.06674
thorax -5.7321 0.911734 0.0337808
lowerneck -9.0702 -0.95794 1.1257
upperneck 24.4908 -1.88043 1.244
head 9.17167 -0.649995 0.0364951
rclavicle -6.05051e-015 8.54774e-015
rhumerus -52.275 -6.43325 -84.6503
rradius 42.0538
rwrist 18.1579
rhand -8.16601 -29.468
rfingers 7.12502
rthumb 17.7491 -58.678
lclavicle -6.05051e-015 8.54774e-015
lhumerus -46.1386 5.91895 87.399
lradius 37.1579
lwrist -13.7547
lhand -4.51608 -24.6253
lfingers 7.12502
lthumb 21.2583 4.2289
rfemur 0 0 0
rtibia 0
rfoot 0 0
rtoes 0
lfemur -3.66469 -6.211 -11.1935
ltibia 22.9498
lfoot -25.8154 15.6782
ltoes -53.6826
247
root -0.921848 18.665 6.21161 1.32529 -4.25237 -4.10394
lowerback 3.70674 1.3356 1.63318
upperback -3.54002 1.94689 1.07642
thorax -5.73382 0.920428 0.0347423
lowerneck -9.15995 -0.98534 1.15854
upperneck 24.6058 -1.9134 1.17786
head 9.22783 -0.667651 0.00401508
rclavicle -9.20621e-015 -5.96354e-015
rhumerus -52.2665 -6.39838 -84.652
rradius 42.0461
rwrist 17.9351
rhand -8.4207 -29.2685
rfingers 7.12502
rthumb 17.504 -58.5004
lclavicle -9.20621e-015 -5.96354e-015
lhumerus -46.1524 5.78905 87.4747
lradius 37.2106
lwrist -13.4869
lhand -4.81385 -24.4795
lfingers 7.12502
lthumb 20.9723 4.40667
rfemur 0 0 0
rtibia 0
rfoot 0 0
rtoes 0
lfemur -3.66919 -6.29024 -11.1617
ltibia 22.9553
lfoot -25.8654 15.6865
ltoes -53.5804
248
root -0.921063 18.6641 6.21251 1.3168 -4.24844 -4.13339
lowerback 3.71176 1.33356 1.67891
upperback -3.58019 1.94756 1.06689
thorax -5.7772 0.918134 -0.00137106
lowerneck -9.1731 -1.02052 1.16897
upperneck 24.6815 -1.96198 1.15672
head 9.25654 -0.690839 -0.0103984
rclavicle 1.42131e-014 1.17283e-014
rhumerus -52.2688 -6.36563 -84.6822
rradius 42.0154
rwrist 17.7783
rhand -8.60836 -29.1491
rfingers 7.12502
rthumb 17.3234 -58.397
lclavicle 1.42131e-014 1.17283e-014
lhumerus -46.225 5.71546 87.4767
lradius 37.3004
lwrist -13.5061
lhand -4.46868 -24.4337
lfingers 7.12502
lthumb 21.3038 4.41533
rfemur 0 0 0
rtibia 0
rfoot 0 0
rtoes 0
lfemur -3.6637 -6.30415 -11.1359
ltibia 22.9682
lfoot -25.8534 15.7072
ltoes -53.5286
249
root -0.920218 18.6632 6.21347 1.27779 -4.25034 -4.15123
lowerback 3.73502 1.34538 1.72536
upperback -3.59661 1.96635 1.04853
thorax -5.80551 0.924743 -0.048803
lowerneck -9.14668 -1.05282 1.15761
upperneck 24.6764 -2.00359 1.1524
head 9.24978 -0.712043 -0.0141534
rclavicle -7.56624e-015 -1.17283e-014
rhumerus -52.2511 -6.38221 -84.7012
rradius 41.9796
rwrist 17.7705
rhand -8.6967 -29.1962
rfingers 7.12502
rthumb 17.2384 -58.4516
lclavicle -7.56624e-015 -1.17283e-014
lhumerus -46.2407 5.63175 87.489
lradius 37.3924
lwrist -13.4689
lhand -4.0327 -24.3346
lfingers 7.12502
lthumb 21.7226 4.4666
rfemur 0 0 0
rtibia 0
rfoot 0 0
rtoes 0
lfemur -3.62447 -6.28984 -11.1224
ltibia 22.9864
lfoot -25.848 15.7179
ltoes -53.5452
250
root -0.920131 18.6632 6.21423 1.23867 -4.24597 -4.19839
lowerback 3.74396 1.36264 1.78457
upperback -3.59617 1.99336 1.04637
thorax -5.80789 0.935546 -0.0866724
lowerneck -9.17307 -1.08086 1.16104
upperneck 24.7003 -2.03245 1.10346
head 9.2625 -0.729961 -0.0347987
rclavicle -8.80865e-015 -6.36111e-015
rhumerus -52.2345 -6.38696 -84.7178
rradius 41.9664
rwrist 17.7645
rhand -8.68475 -29.3591
rfingers 7.12502
rthumb 17.2499 -58.6135
lclavicle -8.80865e-015 -6.36111e-015
lhumerus -46.2233 5.51342 87.5433
lradius 37.4972
lwrist -13.2036
lhand -3.7526 -24.1982
lfingers 7.12502
lthumb 21.9915 4.57165
rfemur 0 0 0
rtibia 0
rfoot 0 0
rtoes 0
lfemur -3.58308 -6.32447 -11.0786
ltibia 23.0021
lfoot -25.862 15.7358
ltoes -53.5709
